Coordinates
version=1
nRows=6
nColumns=63
inDegrees=yes

Units are S.I. units (second, meters, Newtons, ...)
If the header above contains a line with 'inDegrees', this indicates whether rotational values are in degrees (yes) or radians (no).

endheader
time	pelvis_tilt	pelvis_list	pelvis_rotation	pelvis_tx	pelvis_ty	pelvis_tz	hip_flexion_r	hip_adduction_r	hip_rotation_r	knee_angle_r	knee_angle_r_beta	ankle_angle_r	subtalar_angle_r	mtp_angle_r	hip_flexion_l	hip_adduction_l	hip_rotation_l	knee_angle_l	knee_angle_l_beta	ankle_angle_l	subtalar_angle_l	mtp_angle_l	L5_S1_Flex_Ext	L5_S1_Lat_Bending	L5_S1_axial_rotation	L4_L5_Flex_Ext	L4_L5_Lat_Bending	L4_L5_axial_rotation	L3_L4_Flex_Ext	L3_L4_Lat_Bending	L3_L4_axial_rotation	L2_L3_Flex_Ext	L2_L3_Lat_Bending	L2_L3_axial_rotation	L1_L2_Flex_Ext	L1_L2_Lat_Bending	L1_L2_axial_rotation	L1_T12_Flex_Ext	L1_T12_Lat_Bending	L1_T12_axial_rotation	Abs_r3	Abs_r2	Abs_r1	Abs_t1	Abs_t2	neck_flexion	neck_bending	neck_rotation	arm_flex_r	arm_add_r	arm_rot_r	elbow_flex_r	pro_sup_r	wrist_flex_r	wrist_dev_r	arm_flex_l	arm_add_l	arm_rot_l	elbow_flex_l	pro_sup_l	wrist_flex_l	wrist_dev_l
5.271186	-3.978649	-11.530860	87.138348	0.313784	0.908571	0.652180	2.970285	-1.416204	-4.089314	6.323458	0.110365	31.147299	17.332493	0.000000	0.565069	-0.533809	6.351364	0.430145	0.007507	21.184410	-11.051887	0.000000	-0.148239	-0.435421	-0.706106	-0.275294	-0.579110	-0.750237	-0.243541	-1.058683	-0.750237	-0.169422	-1.058683	-0.617843	-0.137655	-0.887910	-0.573711	-0.084704	-0.674467	-0.529579	-1.058855	-4.925569	-3.927149	0.000000	0.000000	8.154798	4.679965	-10.332234	26.145495	7.604793	131.398147	4.217310	6.569530	9.499878	-23.392580	6.166094	-12.791141	18.504505	48.538458	76.885315	-5.301989	0.174937
5.288136	-3.717228	-11.682268	87.224668	0.312204	0.908304	0.652009	3.051784	-1.233999	-4.114954	6.215997	0.108490	31.057685	17.325947	0.000000	0.724873	-0.720940	6.321767	0.432272	0.007545	21.662130	-10.944868	0.000000	-0.137224	-0.374662	-0.685810	-0.254839	-0.498300	-0.728673	-0.225446	-0.910953	-0.728673	-0.156834	-0.910953	-0.600083	-0.127426	-0.764011	-0.557220	-0.078410	-0.580351	-0.514357	-0.980179	-4.238251	-3.814267	0.000000	0.000000	8.102293	4.115953	-10.311530	25.007425	6.604786	122.568599	8.847542	12.428472	8.651158	-21.035977	5.994538	-12.201583	17.672395	50.081127	75.320287	-4.599009	2.299229
5.305085	-3.365320	-11.868094	87.368169	0.310326	0.907900	0.651876	3.176481	-0.981672	-4.232260	6.154238	0.107412	30.933899	17.335363	0.000000	0.922371	-0.985027	6.398280	0.434910	0.007591	22.118230	-10.920906	0.000000	-0.124183	-0.299600	-0.639328	-0.230621	-0.398468	-0.679286	-0.204021	-0.728447	-0.679286	-0.141929	-0.728447	-0.559412	-0.115317	-0.610944	-0.519454	-0.070958	-0.464080	-0.479496	-0.887030	-3.389135	-3.555750	0.000000	0.000000	8.138315	3.489909	-10.433322	23.590171	5.334155	112.400565	14.210412	18.739112	7.467083	-18.251002	5.919972	-11.527629	17.063894	51.561306	73.931497	-3.925018	4.545732
5.322034	-2.957263	-12.076893	87.564117	0.308231	0.907379	0.651788	3.334181	-0.688475	-4.422949	6.129524	0.106980	30.804383	17.357545	0.000000	1.149414	-1.296113	6.603751	0.439320	0.007668	22.526838	-10.987915	0.000000	-0.109286	-0.215672	-0.566479	-0.202954	-0.286844	-0.601884	-0.179545	-0.524385	-0.601884	-0.124902	-0.524385	-0.495669	-0.101483	-0.439799	-0.460264	-0.062446	-0.334076	-0.424859	-0.780616	-2.439726	-3.150588	0.000000	0.000000	8.272814	2.853178	-10.688884	21.947202	3.855346	101.286284	20.106390	25.244397	5.873036	-15.107007	5.957638	-10.801069	16.736061	52.934363	72.808344	-3.307892	6.749778
5.338983	-2.500736	-12.300823	87.782797	0.306021	0.906785	0.651809	3.525365	-0.355038	-4.645993	6.136644	0.107105	30.669495	17.384824	0.000000	1.400818	-1.650659	6.922965	0.443396	0.007739	22.883019	-11.157190	0.000000	-0.093912	-0.126055	-0.459824	-0.174404	-0.167654	-0.488563	-0.154288	-0.306491	-0.488563	-0.107332	-0.306491	-0.402346	-0.087207	-0.257052	-0.373607	-0.053661	-0.195260	-0.344868	-0.670803	-1.425963	-2.557406	0.000000	0.000000	8.513736	2.235950	-11.206051	20.166470	2.192961	89.492644	26.344976	31.679549	3.995463	-11.646813	6.162374	-10.044294	16.795732	54.121978	71.991341	-2.779847	8.746418
5.355932	-2.003389	-12.537057	88.052362	0.303735	0.906151	0.651943	3.739258	0.015866	-4.919864	6.154829	0.107422	30.543657	17.419604	0.000000	1.680050	-2.045855	7.408795	0.447267	0.007806	23.184139	-11.445891	0.000000	-0.077759	-0.032515	-0.330130	-0.144407	-0.043245	-0.350763	-0.127751	-0.079057	-0.350763	-0.088871	-0.079057	-0.288864	-0.072207	-0.066305	-0.268231	-0.044432	-0.050366	-0.247598	-0.555428	-0.367816	-1.836085	0.000000	0.000000	8.848912	1.639389	-11.946639	18.299045	0.436761	77.490905	32.724975	38.176561	1.724335	-7.906426	6.524930	-9.266603	17.225283	55.075360	71.585606	-2.464205	10.290497
